# File created by Blade
# Date/Time:  Tue Apr 07 20:49:23 2015
# Frame Rate: 120.000 fps
#------------------------------------------------------
:FULLY-SPECIFIED
:DEGREES
636
root 1.111601 34.022886 -5.873733 -12.844137 49.644879 -111.832781
Spine -45.716551 -10.565676 34.497426
Head -14.576066 29.785667 33.151573
LeftShoulder -25.625216 37.703193 30.098274
LeftArm 76.053093 -70.154471 -71.975536
LeftForeArm 14.679725 -0.000000 10.134727
LeftHand 7.130307 -0.000000 14.068971
LeftHandThumb1 -26.253704 0.000000 33.147579
RightShoulder -23.974692 -6.424401 -27.529728
RightArm -21.593028 36.457228 22.517231
RightForeArm 60.124218 -0.000000 -2.837932
RightHand 3.394213 0.000000 15.031238
RightHandThumb1 -24.326973 -0.000000 -32.862282
LeftUpLeg -84.751363 39.449602 22.694801
LeftLeg -13.542307 -0.000000 0.000000
LeftFoot 10.143140 16.475111 1.157012
LeftToeBase -14.206220 -0.000000 0.000000
RightUpLeg 33.061325 20.920303 -16.897202
RightLeg 59.869263 -0.000000 -0.000000
RightFoot 55.361781 10.643555 0.137004
RightToeBase 7.114503 -0.000000 -0.000000
637
root 1.114550 34.018662 -5.889234 -12.656451 49.688001 -111.778672
Spine -45.743091 -10.567151 34.522179
Head -14.718777 29.808787 33.173980
LeftShoulder -25.579469 37.657988 30.151587
LeftArm 75.806759 -70.216997 -71.832540
LeftForeArm 14.717052 -0.000000 9.860163
LeftHand 6.757815 -0.000000 14.499853
LeftHandThumb1 -26.253704 0.000000 33.147579
RightShoulder -23.970580 -6.345702 -27.492879
RightArm -21.627355 36.400570 22.429787
RightForeArm 60.173636 -0.000000 -2.872111
RightHand 3.446591 -0.000000 15.055316
RightHandThumb1 -24.326973 -0.000000 -32.862282
LeftUpLeg -84.858081 39.434203 22.637245
LeftLeg -13.585494 -0.000000 0.000000
LeftFoot 10.195080 16.546369 1.241645
LeftToeBase -14.329219 -0.000000 0.000000
RightUpLeg 33.012502 20.898926 -16.863401
RightLeg 59.912622 -0.000000 -0.000000
RightFoot 55.354603 10.651064 0.138871
RightToeBase 7.234176 -0.000000 -0.000000
638
root 1.115776 34.015143 -5.907982 -12.484440 49.741020 -111.712241
Spine -45.702523 -10.574078 34.526864
Head -14.962437 30.114840 33.098930
LeftShoulder -25.696849 37.648953 30.056146
LeftArm 75.903637 -70.225927 -71.896885
LeftForeArm 14.622362 -0.000000 9.523608
LeftHand 6.877944 -0.000000 14.536919
LeftHandThumb1 -26.253704 0.000000 33.147579
RightShoulder -24.010266 -6.262621 -27.459401
RightArm -21.696064 36.389175 22.361180
RightForeArm 60.243032 -0.000000 -2.830600
RightHand 3.432960 0.000000 15.125403
RightHandThumb1 -24.326973 -0.000000 -32.862282
LeftUpLeg -84.990159 39.396200 22.523924
LeftLeg -13.611553 -0.000000 0.000000
LeftFoot 10.260229 16.562969 1.430017
LeftToeBase -14.368119 -0.000000 0.000000
RightUpLeg 32.975616 20.872881 -16.859675
RightLeg 59.965744 -0.000000 -0.000000
RightFoot 55.361542 10.619428 0.153386
RightToeBase 7.344799 -0.000000 -0.000000
639
root 1.115410 34.012029 -5.925294 -12.337540 49.784335 -111.667065
Spine -45.667795 -10.576288 34.549135
Head -15.179999 30.168018 33.039537
LeftShoulder -25.732856 37.638800 30.048865
LeftArm 75.856004 -70.230782 -71.889889
LeftForeArm 14.474765 -0.000000 9.254418
LeftHand 7.189332 -0.000000 14.059669
LeftHandThumb1 -26.253704 0.000000 33.147579
RightShoulder -24.014630 -6.231537 -27.466185
RightArm -21.813612 36.456571 22.329512
RightForeArm 60.288061 -0.000000 -2.730458
RightHand 3.443092 -0.000000 15.140681
RightHandThumb1 -24.326973 -0.000000 -32.862282
LeftUpLeg -85.072912 39.371282 22.496756
LeftLeg -13.628801 -0.000000 0.000000
LeftFoot 10.307092 16.609116 1.572984
LeftToeBase -14.427072 -0.000000 0.000000
RightUpLeg 32.950955 20.856129 -16.847960
RightLeg 60.023423 -0.000000 -0.000000
RightFoot 55.373002 10.626867 0.152603
RightToeBase 7.267006 -0.000000 -0.000000
640
root 1.113653 34.009959 -5.944989 -12.205059 49.831876 -111.639216
Spine -45.627821 -10.565253 34.566895
Head -15.401292 30.125236 32.991813
LeftShoulder -25.689471 37.620666 30.097591
LeftArm 75.850829 -70.279383 -71.961358
LeftForeArm 14.489348 -0.000000 8.994238
LeftHand 6.869364 -0.000000 14.366355
LeftHandThumb1 -26.253704 0.000000 33.147579
RightShoulder -24.043974 -6.279035 -27.461397
RightArm -21.919213 36.635998 22.322646
RightForeArm 60.248923 -0.000000 -2.583444
RightHand 3.455829 0.000000 15.041405
RightHandThumb1 -24.326973 -0.000000 -32.862282
LeftUpLeg -85.154682 39.339079 22.489730
LeftLeg -13.636491 -0.000000 0.000000
LeftFoot 10.340926 16.670269 1.669681
LeftToeBase -14.494284 -0.000000 0.000000
RightUpLeg 32.930289 20.843252 -16.829067
RightLeg 60.076617 -0.000000 -0.000000
RightFoot 55.355385 10.626553 0.194742
RightToeBase 7.281762 -0.000000 -0.000000
641
root 1.110536 34.008392 -5.964851 -12.088767 49.889618 -111.615765
Spine -45.572360 -10.559612 34.577131
Head -15.651438 30.123236 32.902109
LeftShoulder -25.748020 37.674029 30.055582
LeftArm 76.079206 -70.270392 -72.172970
LeftForeArm 14.433618 -0.000000 8.716748
LeftHand 7.173224 -0.000000 14.006821
LeftHandThumb1 -26.253704 0.000000 33.147579
RightShoulder -24.077466 -6.286128 -27.475875
RightArm -22.049141 36.739347 22.309780
RightForeArm 60.313356 -0.000000 -2.445526
RightHand 3.458935 -0.000000 15.029082
RightHandThumb1 -24.326973 -0.000000 -32.862282
LeftUpLeg -85.237342 39.298693 22.478978
LeftLeg -13.631282 -0.000000 0.000000
LeftFoot 10.327357 16.712841 1.605430
LeftToeBase -14.470369 -0.000000 0.000000
RightUpLeg 32.926239 20.819258 -16.817440
RightLeg 60.116199 -0.000000 -0.000000
RightFoot 55.353295 10.610941 0.247023
RightToeBase 7.498336 -0.000000 -0.000000
642
root 1.107772 34.006585 -5.985451 -11.972955 49.942806 -111.590721
Spine -45.514210 -10.540312 34.574490
Head -15.882331 30.089548 32.826612
LeftShoulder -25.771995 37.705315 30.052105
LeftArm 76.255856 -70.256534 -72.334351
LeftForeArm 14.418953 -0.000000 8.490370
LeftHand 7.130452 -0.000000 13.894445
LeftHandThumb1 -26.253704 0.000000 33.147579
RightShoulder -24.151788 -6.359572 -27.435445
RightArm -22.039692 36.828252 22.354659
RightForeArm 60.418646 -0.000000 -2.359641
RightHand 3.441825 0.000000 15.017215
RightHandThumb1 -24.326973 -0.000000 -32.862282
LeftUpLeg -85.354591 39.272233 22.400555
LeftLeg -13.634382 -0.000000 0.000000
LeftFoot 10.274266 16.662418 1.404148
LeftToeBase -14.506183 -0.000000 0.000000
RightUpLeg 32.922628 20.792939 -16.829847
RightLeg 60.137861 -0.000000 -0.000000
RightFoot 55.348518 10.642420 0.236127
RightToeBase 7.443522 -0.000000 -0.000000
643
root 1.103699 34.004477 -6.008770 -11.857843 50.015612 -111.546236
Spine -45.429329 -10.540177 34.563674
Head -16.128304 30.219988 32.695942
LeftShoulder -25.820487 37.690848 30.024982
LeftArm 75.892488 -70.197758 -71.907980
LeftForeArm 14.359837 -0.000000 8.246324
LeftHand 6.955379 -0.000000 14.258319
LeftHandThumb1 -26.253704 0.000000 33.147579
RightShoulder -24.246850 -6.375447 -27.392222
RightArm -22.027270 36.894450 22.344401
RightForeArm 60.443793 -0.000000 -2.289600
RightHand 3.407187 -0.000000 15.006379
RightHandThumb1 -24.326973 -0.000000 -32.862282
LeftUpLeg -85.478574 39.225710 22.276212
LeftLeg -13.647051 -0.000000 0.000000
LeftFoot 10.196720 16.588225 1.098682
LeftToeBase -14.471887 -0.000000 0.000000
RightUpLeg 32.955329 20.763174 -16.852017
RightLeg 60.117284 -0.000000 -0.000000
RightFoot 55.312975 10.725338 0.193926
RightToeBase 7.453818 -0.000000 -0.000000
